<mxfile host="app.diagrams.net" modified="2022-11-07T08:38:08.127Z" agent="5.0 (Macintosh; Intel Mac OS X 10_15_7) AppleWebKit/537.36 (KHTML, like Gecko) Chrome/107.0.0.0 Safari/537.36" etag="stREBtuHuX_iz9EKvdyH" version="20.5.3" type="github">
  <diagram id="SUMr6iN-FBDp5Vnd_mcw" name="第 1 页">
    <mxGraphModel dx="900" dy="546" grid="1" gridSize="10" guides="1" tooltips="1" connect="1" arrows="1" fold="1" page="1" pageScale="1" pageWidth="827" pageHeight="1169" math="0" shadow="0">
      <root>
        <mxCell id="0" />
        <mxCell id="1" parent="0" />
        <mxCell id="AlMP-PIC5pg7imQs7xr7-1" value="" style="rounded=1;whiteSpace=wrap;html=1;" vertex="1" parent="1">
          <mxGeometry x="150" y="120" width="120" height="60" as="geometry" />
        </mxCell>
        <mxCell id="AlMP-PIC5pg7imQs7xr7-6" style="edgeStyle=orthogonalEdgeStyle;rounded=0;orthogonalLoop=1;jettySize=auto;html=1;entryX=0.9;entryY=0.376;entryDx=0;entryDy=0;entryPerimeter=0;" edge="1" parent="1" source="AlMP-PIC5pg7imQs7xr7-2" target="AlMP-PIC5pg7imQs7xr7-5">
          <mxGeometry relative="1" as="geometry">
            <Array as="points">
              <mxPoint x="535" y="260" />
              <mxPoint x="680" y="260" />
              <mxPoint x="680" y="329" />
            </Array>
          </mxGeometry>
        </mxCell>
        <mxCell id="AlMP-PIC5pg7imQs7xr7-2" value="" style="html=1;points=[];perimeter=orthogonalPerimeter;" vertex="1" parent="1">
          <mxGeometry x="530" y="70" width="10" height="170" as="geometry" />
        </mxCell>
        <mxCell id="AlMP-PIC5pg7imQs7xr7-3" value="dispatch" style="html=1;verticalAlign=bottom;endArrow=block;entryX=0;entryY=0;rounded=0;" edge="1" target="AlMP-PIC5pg7imQs7xr7-2" parent="1">
          <mxGeometry relative="1" as="geometry">
            <mxPoint x="400" y="70" as="sourcePoint" />
          </mxGeometry>
        </mxCell>
        <mxCell id="AlMP-PIC5pg7imQs7xr7-4" value="return" style="html=1;verticalAlign=bottom;endArrow=open;dashed=1;endSize=8;exitX=0;exitY=0.95;rounded=0;" edge="1" source="AlMP-PIC5pg7imQs7xr7-2" parent="1">
          <mxGeometry relative="1" as="geometry">
            <mxPoint x="450" y="236" as="targetPoint" />
          </mxGeometry>
        </mxCell>
        <mxCell id="AlMP-PIC5pg7imQs7xr7-5" value="" style="html=1;points=[];perimeter=orthogonalPerimeter;rotation=35;" vertex="1" parent="1">
          <mxGeometry x="530" y="350" width="10" height="170" as="geometry" />
        </mxCell>
      </root>
    </mxGraphModel>
  </diagram>
</mxfile>
